#!OML:ASF F:\VICON\USERDATA\INSTALL\rory3\rory3.ASF
:FULLY-SPECIFIED
:DEGREES
4586
root 7.82416 17.9566 3.58496 -1447.69 -45.9034 367.061
lowerback 12.0353 1.06171 -4.21227
upperback 0.516372 0.818239 0.0505615
thorax -6.27774 0.516128 2.29095
lowerneck -17.402 -6.25998 -10.8429
upperneck 28.5612 -8.40103 7.7179
head 13.3227 -3.97807 3.42326
rclavicle 4.13472e-014 1.27222e-014
rhumerus -35.2701 -4.5766 -84.2163
rradius 31.9669
rwrist 3.52619
rhand -16.7078 6.40699
rfingers 7.12502
rthumb 9.5173 -23.3581
lclavicle 4.13472e-014 1.27222e-014
lhumerus -33.0166 4.0314 80.8839
lradius 29.1831
lwrist -9.36223
lhand -15.6519 25.9461
lfingers 7.12502
lthumb 10.536 55.662
rfemur -17.6462 -1.66776 14.4117
rtibia 69.3983
rfoot -5.43417 -0.518277
rtoes 3.68818
lfemur -1.78071 -1.9575 -29.2582
ltibia 18.1461
lfoot -7.94856 -2.96063
ltoes 1.04704
4587
root 7.75103 17.9444 3.67208 -1447.92 -45.8706 367.274
lowerback 12.1447 1.03541 -4.4564
upperback 0.481474 0.743998 0.0621087
thorax -6.37469 0.489597 2.45297
lowerneck -17.3139 -6.22132 -10.9854
upperneck 28.6157 -8.35343 7.8288
head 13.3347 -3.96266 3.50321
rclavicle -2.48481e-017 3.97569e-016
rhumerus -35.6009 -4.74431 -83.8764
rradius 31.8661
rwrist 3.46322
rhand -16.5302 7.4117
rfingers 7.12502
rthumb 9.68864 -22.3455
lclavicle -2.48481e-017 3.97569e-016
lhumerus -32.4619 3.75196 81.1087
lradius 29.108
lwrist -9.41487
lhand -15.595 26.0401
lfingers 7.12502
lthumb 10.5909 55.7532
rfemur -18.4855 -1.7579 14.2779
rtibia 68.934
rfoot -5.52666 -1.22052
rtoes 4.43586
lfemur -1.41104 -1.69455 -29.5076
ltibia 18.3997
lfoot -8.39095 -2.96193
ltoes -0.659828
4588
root 7.68025 17.9296 3.75519 -1448.11 -45.8681 367.494
lowerback 12.2148 0.969037 -4.78202
upperback 0.461106 0.611825 0.14508
thorax -6.43067 0.437549 2.7477
lowerneck -17.2165 -6.18119 -11.2133
upperneck 28.5839 -8.25109 7.88737
head 13.3039 -3.93832 3.58489
rclavicle -2.34814e-014 3.97569e-015
rhumerus -35.9076 -4.50358 -83.6158
rradius 31.9598
rwrist 3.43965
rhand -16.4223 7.9598
rfingers 7.12502
rthumb 9.79271 -21.7925
lclavicle -2.34814e-014 3.97569e-015
lhumerus -32.0285 3.67285 81.3592
lradius 29.1855
lwrist -9.55857
lhand -15.783 26.0811
lfingers 7.12502
lthumb 10.4095 55.8034
rfemur -19.3436 -1.83352 14.171
rtibia 68.3263
rfoot -6.68995 -1.15358
rtoes 3.21197
lfemur -1.13248 -1.35358 -29.748
ltibia 18.7326
lfoot -8.76795 -2.92197
ltoes -2.52685
4589
root 7.61176 17.9133 3.83211 -1448.18 -45.8843 367.61
lowerback 12.0707 0.965573 -4.76587
upperback 0.631998 0.61234 0.0284357
thorax -6.16652 0.425721 2.6166
lowerneck -17.3992 -6.23348 -11.1127
upperneck 28.4404 -8.3665 8.02485
head 13.2984 -3.95268 3.59552
rclavicle 3.72224e-014 -3.57812e-015
rhumerus -35.8174 -4.91136 -83.544
rradius 31.9849
rwrist 3.6542
rhand -16.3725 8.00194
rfingers 7.12502
rthumb 9.84076 -21.7481
lclavicle 3.72224e-014 -3.57812e-015
lhumerus -31.1517 3.44533 81.4171
lradius 29.2382
lwrist -9.84915
lhand -15.8514 25.8895
lfingers 7.12502
lthumb 10.3435 55.6151
rfemur -20.2715 -1.9294 14.2005
rtibia 67.555
rfoot -7.68747 -1.23308
rtoes 1.87694
lfemur -0.944859 -1.15263 -29.8895
ltibia 19.0903
lfoot -9.03341 -2.79058
ltoes -2.09199
4590
root 7.54495 17.8957 3.90794 -1448.11 -45.9081 367.568
lowerback 11.9688 0.981404 -4.67518
upperback 0.781165 0.649674 -0.034609
thorax -5.95216 0.432648 2.49374
lowerneck -17.6006 -6.29822 -10.999
upperneck 28.3274 -8.48891 8.11284
head 13.3073 -3.97466 3.58302
rclavicle 7.26558e-014 -4.77083e-015
rhumerus -35.7502 -5.13745 -83.4922
rradius 32.0291
rwrist 3.65105
rhand -16.4562 7.97828
rfingers 7.12502
rthumb 9.76008 -21.7756
lclavicle 7.26558e-014 -4.77083e-015
lhumerus -30.2863 3.20116 81.5175
lradius 29.2587
lwrist -10.2536
lhand -16.1224 25.2007
lfingers 7.12502
lthumb 10.0821 54.9392
rfemur -21.183 -1.99751 14.3632
rtibia 66.6368
rfoot -8.20253 -1.6975
rtoes 1.82551
lfemur -0.785178 -1.09383 -29.9276
ltibia 19.4493
lfoot -9.38981 -2.56006
ltoes -1.48083
4591
root 7.47559 17.8788 3.987 -1448.16 -45.8437 367.725
lowerback 12.1591 0.871389 -4.98754
upperback 0.634114 0.451955 0.0366239
thorax -6.2029 0.354162 2.77811
lowerneck -17.5192 -6.20599 -10.9823
upperneck 28.3581 -8.32512 7.96492
head 13.2739 -3.92363 3.55292
rclavicle 1.80397e-014 2.78299e-015
rhumerus -36.0878 -4.73991 -83.411
rradius 32.0627
rwrist 3.50719
rhand -16.5413 7.84838
rfingers 7.12502
rthumb 9.67796 -21.9093
lclavicle 1.80397e-014 2.78299e-015
lhumerus -30.0205 3.36418 81.6096
lradius 29.3975
lwrist -10.556
lhand -15.7119 24.7146
lfingers 7.12502
lthumb 10.4781 54.4334
rfemur -22.018 -2.16857 14.3285
rtibia 65.5564
rfoot -8.81625 -2.08139
rtoes 2.23855
lfemur -0.635769 -0.8857 -30.1403
ltibia 19.7988
lfoot -9.88707 -2.34547
ltoes -2.97198
4592
root 7.4059 17.8635 4.07186 -1448.26 -45.8275 367.962
lowerback 11.8955 0.832223 -4.80363
upperback 0.817661 0.425734 -0.238719
thorax -5.85427 0.320199 2.38954
lowerneck -17.6835 -6.27948 -10.8994
upperneck 28.1969 -8.48357 8.15334
head 13.2661 -3.95304 3.57882
rclavicle 3.01407e-014 4.77083e-015
rhumerus -35.9943 -5.13155 -83.5391
rradius 32.0375
rwrist 3.56661
rhand -16.5683 7.94375
rfingers 7.12502
rthumb 9.65184 -21.8151
lclavicle 3.01407e-014 4.77083e-015
lhumerus -29.0505 2.6483 81.6472
lradius 29.5964
lwrist -9.91061
lhand -15.2431 25.1327
lfingers 7.12502
lthumb 10.9303 54.8282
rfemur -22.7992 -2.45315 14.2238
rtibia 64.3081
rfoot -9.61074 -2.06024
rtoes 2.64016
lfemur -0.43129 -0.678236 -30.4233
ltibia 20.0686
lfoot -10.202 -2.13964
ltoes -3.88867
